<?xml version="1.0" encoding="UTF-8"?>
<svg width="24px" height="24px" viewBox="0 0 24 24" version="1.1" xmlns="http://www.w3.org/2000/svg" xmlns:xlink="http://www.w3.org/1999/xlink">
    <!-- Generator: Sketch 50.2 (55047) - http://www.bohemiancoding.com/sketch -->
    <title>Back</title>
    <desc>Created with Sketch.</desc>
    <defs></defs>
    <g id="Symbols" stroke="none" stroke-width="1" fill="none" fill-rule="evenodd">
        <g id="Back" fill="#7352BF">
            <path d="M10.4142136,11 L12.7071068,8.70710678 C13.0976311,8.31658249 13.0976311,7.68341751 12.7071068,7.29289322 C12.3165825,6.90236893 11.6834175,6.90236893 11.2928932,7.29289322 L7.29289322,11.2928932 C6.90236893,11.6834175 6.90236893,12.3165825 7.29289322,12.7071068 L11.2928932,16.7071068 C11.6834175,17.0976311 12.3165825,17.0976311 12.7071068,16.7071068 C13.0976311,16.3165825 13.0976311,15.6834175 12.7071068,15.2928932 L10.4142136,13 L16.0104121,13 C16.5626969,13 17.0104121,12.5522847 17.0104121,12 C17.0104121,11.4477153 16.5626969,11 16.0104121,11 L10.4142136,11 Z M12,24 C5.372583,24 0,18.627417 0,12 C0,5.372583 5.372583,0 12,0 C18.627417,0 24,5.372583 24,12 C24,18.627417 18.627417,24 12,24 Z"></path>
        </g>
    </g>
</svg>