<?xml version="1.0" encoding="UTF-8"?>
<svg width="16px" height="16px" viewBox="0 0 16 16" version="1.1" xmlns="http://www.w3.org/2000/svg" xmlns:xlink="http://www.w3.org/1999/xlink">
    <!-- Generator: Sketch 49 (51002) - http://www.bohemiancoding.com/sketch -->
    <title>kaoheguanli</title>
    <desc>Created with Sketch.</desc>
    <defs></defs>
    <g id="kaoheguanli" stroke="none" stroke-width="1" fill="none" fill-rule="evenodd">
        <g id="Group-6" transform="translate(2.000000, 3.000000)" fill="#fff">
            <path d="M3.83293217,4.25896497 L1.52669891,6.53393657 C1.23181388,6.82482435 0.756951202,6.82158393 0.466063428,6.52669891 C0.175175655,6.23181388 0.178416068,5.7569512 0.473301094,5.46606343 L3.30623326,2.67153248 C3.59827657,2.38344791 4.06758777,2.38344791 4.35963107,2.67153248 L6.62403762,4.90524434 L10.4395339,0.51833312 C10.7113641,0.205793178 11.1850897,0.172791414 11.4976296,0.444621618 C11.8101695,0.716451822 11.8431713,1.19017742 11.5713411,1.50271737 L7.23176796,6.49219212 C6.94780076,6.81868672 6.44721683,6.83781225 6.13916543,6.53393657 L3.83293217,4.25896497 Z" id="Path-2" fill-rule="nonzero"></path>
            <path d="M8.70710678,0 L11.5,0 C11.7761424,-5.07265313e-17 12,0.223857625 12,0.5 L12,3.29289322 C12,3.56903559 11.7761424,3.79289322 11.5,3.79289322 C11.3673918,3.79289322 11.2402148,3.7402148 11.1464466,3.64644661 L8.35355339,0.853553391 C8.15829124,0.658291245 8.15829124,0.341708755 8.35355339,0.146446609 C8.44732158,0.0526784202 8.57449854,-3.08707168e-16 8.70710678,-3.33066907e-16 Z" id="Path-4"></path>
        </g>
        <path d="M2.5,12 C2.22385763,12 2,11.7761424 2,11.5 C2,11.2238576 2.22385763,11 2.5,11 L13.5,11 C13.7761424,11 14,11.2238576 14,11.5 C14,11.7761424 13.7761424,12 13.5,12 L2.5,12 Z" id="Path-3" fill="#fff" fill-rule="nonzero"></path>
        <path d="M2.5,14 C2.22385763,14 2,13.7761424 2,13.5 C2,13.2238576 2.22385763,13 2.5,13 L8,13 C8.27614237,13 8.5,13.2238576 8.5,13.5 C8.5,13.7761424 8.27614237,14 8,14 L2.5,14 Z" id="Path-3-Copy" fill="#fff" fill-rule="nonzero"></path>
    </g>
</svg>