<?xml version="1.0" encoding="UTF-8"?>
<svg width="22px" height="22px" viewBox="0 0 22 22" version="1.1" xmlns="http://www.w3.org/2000/svg" xmlns:xlink="http://www.w3.org/1999/xlink">
    <!-- Generator: Sketch 48.2 (47327) - http://www.bohemiancoding.com/sketch -->
    <title>Combined Shape</title>
    <desc>Created with Sketch.</desc>
    <defs></defs>
    <g id="head-message-white" stroke="none" stroke-width="1" fill="none" fill-rule="evenodd" transform="translate(-1.000000, -2.000000)">
        <path d="M3,2 C9.42511882,2 14.2439579,2 17.4565173,2 C18.2439579,2 19.4251188,2 21,2 C22.1045695,2 23,2.8954305 23,4 L23,18 C23,19.1045695 22.1045695,20 21,20 L15.2111026,20 C14.4214026,20 13.6493718,20.2337521 12.9923018,20.6717988 L8,24 L6.5527864,21.1055728 C6.21400238,20.4280048 5.52147614,20 4.76393202,20 L3,20 C1.8954305,20 1,19.1045695 1,18 L1,4 C1,2.8954305 1.8954305,2 3,2 Z M4,6 L4,8 L13,8 L13,6 L4,6 Z M4,10 L4,12 L20,12 L20,10 L4,10 Z M4,14 L4,16 L12,16 L12,14 L4,14 Z" id="Combined-Shape" fill="#FFFFFF"></path>
    </g>
</svg>