<?xml version="1.0" encoding="UTF-8"?>
<svg width="16px" height="16px" viewBox="0 0 16 16" version="1.1" xmlns="http://www.w3.org/2000/svg" xmlns:xlink="http://www.w3.org/1999/xlink">
    <!-- Generator: Sketch 49 (51002) - http://www.bohemiancoding.com/sketch -->
    <title>tianjiachengyuan</title>
    <desc>Created with Sketch.</desc>
    <defs></defs>
    <g id="tianjiachengyuan" stroke="none" stroke-width="1" fill="none" fill-rule="evenodd">
        <path d="M4.5,8.75 C4.08578644,8.75 3.75,8.41421356 3.75,8 C3.75,7.58578644 4.08578644,7.25 4.5,7.25 L11.5,7.25 C11.9142136,7.25 12.25,7.58578644 12.25,8 C12.25,8.41421356 11.9142136,8.75 11.5,8.75 L4.5,8.75 Z" id="Path-3-Copy-2" fill="#4D317C" fill-rule="nonzero"></path>
        <path d="M7.25,4.5 C7.25,4.08578644 7.58578644,3.75 8,3.75 C8.41421356,3.75 8.75,4.08578644 8.75,4.5 L8.75,11.5 C8.75,11.9142136 8.41421356,12.25 8,12.25 C7.58578644,12.25 7.25,11.9142136 7.25,11.5 L7.25,4.5 Z" id="Path-3-Copy-3" fill="#4D317C" fill-rule="nonzero"></path>
    </g>
</svg>